<svg xmlns="http://www.w3.org/2000/svg" viewBox="0 0 299.2 298.88"><defs><style>.ef3fb9c4-de9c-4719-be6d-a581f06416eb{fill:#0896a9;}</style></defs><g id="aee87ec4-41b6-4a94-a6b9-c3afeae69243" data-name="Layer 2"><g id="b4d318ba-ca0c-4d18-8579-bebb9baec279" data-name="Layer 1"><path class="ef3fb9c4-de9c-4719-be6d-a581f06416eb" d="M270.32,285a30.65,30.65,0,0,1-27.4,13.86c-11-.63-25.2-2.2-35-4.72-43.47-11.34-88.51-38.43-126.63-76.55S16.12,134.4,4.78,90.93C2.26,81.17,1,67.31.05,56.28A30.22,30.22,0,0,1,13.6,29.19L52.34,3.36a20,20,0,0,1,29,7.56l31.5,60.8a20.38,20.38,0,0,1-5.35,25.2L79.12,119c11.34,21.1,22,38.11,42.84,58.59,19.21,19.21,35.91,30.55,57.64,42.21L202,191.1a20,20,0,0,1,25.2-5.35l61.11,31.5a20,20,0,0,1,7.56,29Z"/></g></g></svg>